<svg width="754" height="834" viewBox="0 0 754 834" fill="none" xmlns="http://www.w3.org/2000/svg">
<path fill-rule="evenodd" clip-rule="evenodd" d="M308.97 -4.2928C380.395 -52.5929 458.991 -94.3716 546.466 -85.4748C645.89 -75.3628 760.191 -44.633 820.996 47.7836C881.302 139.443 849.072 258.341 843.399 365.834C838.704 454.799 839.994 549.639 790.989 616.381C744.54 679.641 657.784 676.54 590.076 710.843C513.389 749.695 455.448 851.175 368.527 830.411C281.974 809.734 248.652 689.096 187.514 614.673C122.753 535.84 3.20499 483.613 0.0960027 381.922C-3.05497 278.856 114.732 240.403 173.813 166.528C220.274 108.434 248.83 36.3765 308.97 -4.2928Z" fill="url(#paint0_linear_3_5)"/>
<defs>
<linearGradient id="paint0_linear_3_5" x1="314.756" y1="-24.2978" x2="619.539" y2="751.073" gradientUnits="userSpaceOnUse">
<stop stop-color="#6D678E"/>
<stop offset="1" stop-color="#F6B5CC"/>
</linearGradient>
</defs>
</svg>
