<svg width="828" height="747" viewBox="0 0 828 747" fill="none" xmlns="http://www.w3.org/2000/svg">
<path fill-rule="evenodd" clip-rule="evenodd" d="M684.037 72.7378C754.741 112.222 822.935 160.531 852.018 237.967C885.075 325.981 906.932 435.329 854.274 526.003C802.048 615.934 688.082 639.609 594.868 680.766C517.72 714.83 438.111 756.441 361.203 743.708C288.307 731.64 254.626 657.286 197.306 614.948C132.384 566.996 22.3798 561.586 3.55775 479.545C-15.1848 397.851 72.8217 318.253 110.134 234.986C149.657 146.786 143.771 23.836 228.409 -22.2346C314.19 -68.9273 395.972 13.792 483.124 31.9582C551.659 46.2439 624.503 39.4912 684.037 72.7378Z" fill="url(#paint0_linear_3_2)" fill-opacity="0.7"/>
<defs>
<linearGradient id="paint0_linear_3_2" x1="703.364" y1="69.0598" x2="175.636" y2="656.94" gradientUnits="userSpaceOnUse">
<stop stop-color="#6D678E"/>
<stop offset="1" stop-color="#F6B5CC"/>
</linearGradient>
</defs>
</svg>
